<svg width="179" height="177" viewBox="0 0 179 177" fill="none" xmlns="http://www.w3.org/2000/svg">
<path d="M106.703 168.288C108.25 170.407 109.544 172.776 110.371 175.343C109.623 177.234 108.339 177.349 106.751 176.475C105.441 172.19 102.508 168.391 99.022 165.209C96.1191 162.562 92.8264 160.291 89.3743 158.254C85.9222 160.292 82.6295 162.562 79.7266 165.209C76.2403 168.391 73.3076 172.189 71.998 176.475C70.409 177.349 69.1258 177.234 68.3777 175.343C69.2046 172.776 70.4975 170.407 72.0453 168.288C73.5949 166.165 75.3941 164.276 77.3133 162.567C79.9902 160.195 82.8949 158.168 85.9038 156.346C82.0408 154.301 78.0404 152.479 73.9383 150.887C71.6582 150.003 69.3518 149.18 67.0244 148.42L65.2768 147.86L63.4987 147.311C62.2942 146.93 61.0986 146.52 59.9143 146.078C55.1859 144.315 50.5959 142.019 46.4544 139.149C42.2735 136.336 38.3807 133.111 34.8445 129.536C31.3538 125.917 28.2328 121.957 25.5358 117.732L24.5503 116.131C24.2306 115.592 23.8706 115.077 23.5929 114.514L21.8314 111.196C20.7758 108.926 19.701 106.663 18.8794 104.298C15.3423 94.9292 13.9872 84.8214 14.5645 74.8816C15.1943 64.9323 17.9553 55.1362 22.6031 46.3344C27.2404 37.5301 33.7207 29.6956 41.5455 23.5468C49.0174 17.641 57.6762 13.2579 66.8474 10.7155C67.2802 10.1888 67.7295 9.66723 68.2621 9.18487C68.9252 8.61457 69.6671 8.10609 70.4677 7.63592C70.8689 7.40432 71.2841 7.17707 71.716 6.97855C72.1513 6.7931 72.5998 6.62157 73.0606 6.46659C73.5222 6.31074 73.9952 6.17142 74.4787 6.04779C74.7205 5.98597 74.9649 5.92763 75.2119 5.87626C75.4607 5.83534 75.7112 5.79877 75.9643 5.76656C76.9761 5.63857 77.9755 5.58807 78.9461 5.61332C79.9201 5.68384 80.8653 5.82663 81.7649 6.03647C82.6636 6.22889 83.5194 6.55888 84.3166 6.9324C85.1137 7.3068 85.8521 7.73866 86.5213 8.22015C85.8521 8.7356 85.1417 9.20403 84.3971 9.61673C83.6526 10.0303 82.873 10.3751 82.0662 10.7312C81.2586 11.0699 80.4203 11.3477 79.5522 11.5575C78.6886 11.8126 77.796 12.0033 76.8718 12.1191C76.4093 12.1696 75.9512 12.2201 75.4983 12.2697C75.0455 12.3132 74.5935 12.3368 74.145 12.3428C73.6965 12.3489 73.2498 12.3368 72.8065 12.3072C72.3659 12.2906 71.9306 12.2715 71.497 12.227C70.6307 12.1452 69.7749 11.9841 68.9401 11.7839C68.2857 11.6446 67.6524 11.4365 67.0226 11.2205C57.946 13.8674 49.43 18.3297 42.1289 24.2652C34.4906 30.4401 28.2232 38.2423 23.7935 46.9439C19.3533 55.643 16.7903 65.2623 16.3102 74.98C15.8828 84.6917 17.3412 94.5034 20.8985 103.542C21.7254 105.825 22.801 108.005 23.8504 110.189L25.6015 113.378C25.8765 113.919 26.233 114.413 26.5501 114.931L27.5251 116.466C30.1915 120.517 33.259 124.3 36.6735 127.747C40.1344 131.148 43.929 134.202 47.9864 136.854C52.0167 139.564 56.3763 141.666 60.9418 143.301C62.0814 143.709 63.2333 144.087 64.3948 144.436L66.1712 144.959L67.9669 145.507C70.3565 146.252 72.7259 147.061 75.0726 147.935C79.766 149.682 84.3796 151.68 88.8312 154.048C89.0143 154.145 89.1921 154.254 89.3743 154.353C89.5565 154.254 89.7343 154.145 89.9174 154.048C94.369 151.68 98.9826 149.683 103.676 147.935C106.024 147.061 108.392 146.253 110.783 145.507L112.578 144.959L114.355 144.436C115.516 144.087 116.667 143.709 117.808 143.301C122.373 141.666 126.733 139.564 130.763 136.854C134.82 134.202 138.615 131.149 142.076 127.747C145.49 124.3 148.559 120.517 151.225 116.466L152.201 114.931C152.517 114.413 152.874 113.92 153.149 113.378L154.9 110.189C155.949 108.005 157.025 105.825 157.853 103.542C161.41 94.5034 162.869 84.6917 162.441 74.98C161.961 65.2623 159.398 55.6438 154.958 46.9439C150.528 38.2432 144.261 30.4401 136.621 24.2652C129.321 18.3288 120.804 13.8666 111.728 11.2205C111.098 11.4365 110.465 11.6446 109.81 11.7839C108.976 11.9841 108.12 12.1452 107.254 12.227C106.821 12.2715 106.385 12.2897 105.945 12.3072C105.501 12.3368 105.055 12.3489 104.606 12.3428C104.157 12.3368 103.706 12.3132 103.253 12.2697C102.8 12.2201 102.342 12.1696 101.879 12.1191C100.955 12.0033 100.063 11.8126 99.199 11.5575C98.3309 11.3477 97.4926 11.0699 96.685 10.7312C95.8782 10.3751 95.0986 10.0303 94.3541 9.61673C93.6095 9.20403 92.8991 8.7356 92.2299 8.22015C92.9 7.73866 93.6376 7.3068 94.4347 6.9324C95.2318 6.55888 96.0885 6.22802 96.9872 6.03647C97.8859 5.82663 98.8311 5.68384 99.806 5.61332C100.776 5.58807 101.776 5.63769 102.788 5.76656C103.041 5.79877 103.291 5.83534 103.54 5.87626C103.787 5.92763 104.032 5.98597 104.273 6.04779C104.757 6.17055 105.23 6.31074 105.691 6.46659C106.151 6.62244 106.601 6.7931 107.035 6.97855C107.467 7.1762 107.882 7.40432 108.283 7.63592C109.085 8.10609 109.826 8.61457 110.489 9.18487C111.022 9.66723 111.471 10.1888 111.904 10.7155C121.076 13.2579 129.735 17.641 137.206 23.5468C145.03 29.6965 151.512 37.5301 156.148 46.3344C160.795 55.1362 163.557 64.9314 164.186 74.8816C164.764 84.8214 163.408 94.9292 159.872 104.298C159.05 106.663 157.975 108.927 156.92 111.196L155.157 114.514C154.88 115.077 154.52 115.592 154.2 116.131L153.214 117.732C150.517 121.957 147.396 125.917 143.906 129.536C140.369 133.111 136.476 136.336 132.296 139.149C128.154 142.018 123.564 144.315 118.835 146.078C117.651 146.52 116.455 146.93 115.251 147.311L113.473 147.86L111.724 148.42C109.397 149.18 107.09 150.003 104.81 150.887C100.709 152.479 96.7078 154.3 92.8448 156.346C95.8537 158.168 98.7584 160.195 101.435 162.567C103.354 164.276 105.154 166.164 106.703 168.288ZM59.895 141.815C60.3137 139.53 59.8494 137.063 58.659 134.805C58.0608 133.674 57.332 132.69 56.5112 131.851C56.1004 131.427 55.6712 131.054 55.2078 130.694C54.74 130.316 54.2425 129.982 53.7187 129.696C53.2675 130.757 53.0214 131.912 53.031 133.124C53.0424 134.349 53.2999 135.568 53.8868 136.774C55.0545 139.176 57.3232 140.989 59.8941 141.816L59.895 141.815ZM37.6703 126.483C38.3291 127.59 39.2155 128.566 40.1992 129.402C41.366 127.49 41.8083 125.112 41.4369 122.68C41.2845 121.427 40.9324 120.272 40.4059 119.237C40.2684 118.983 40.137 118.722 40.0039 118.461C39.8663 118.204 39.7192 117.954 39.5606 117.712C39.2453 117.229 38.8879 116.777 38.4929 116.359C37.7527 117.178 37.1745 118.143 36.8119 119.235C36.6306 119.781 36.5036 120.359 36.4361 120.964C36.3722 121.568 36.352 122.212 36.4493 122.836C36.6201 124.101 37.0493 125.338 37.6695 126.482L37.6703 126.483ZM27.9762 98.8838C26.1121 99.9025 24.6931 101.662 24.1097 104.111C24.0379 104.416 23.9757 104.727 23.9389 105.035C23.9126 105.339 23.9004 105.646 23.9021 105.953C23.9065 106.568 23.9661 107.186 24.0764 107.798C24.1894 108.409 24.3427 109.02 24.5608 109.603C24.8043 110.174 25.0925 110.729 25.4201 111.257C27.0827 109.905 28.1689 107.929 28.6866 105.56C28.8057 104.972 28.8705 104.389 28.8854 103.815C28.8924 103.529 28.8872 103.244 28.8688 102.963C28.8644 102.676 28.8547 102.388 28.8293 102.106C28.7356 100.973 28.4308 99.8965 27.9762 98.883V98.8838ZM22.7686 84.1066C22.9123 83.8628 23.0446 83.6146 23.1637 83.3647C23.2889 83.114 23.423 82.8589 23.5333 82.602C23.7602 82.0883 23.938 81.5668 24.0685 81.04C24.3322 79.9865 24.3743 78.9138 24.362 77.8481C23.3599 78.0074 22.3806 78.3653 21.4757 78.9373C20.5998 79.5085 19.8246 80.2947 19.1816 81.2969C18.861 81.7975 18.5886 82.3295 18.3652 82.8832C18.2566 83.1601 18.1462 83.4422 18.0726 83.7278C18.0043 84.0125 17.9474 84.3016 17.9027 84.5933C17.724 85.7591 17.7372 86.9694 17.9246 88.1361C19.8631 87.4787 21.6133 86.0578 22.7695 84.1083L22.7686 84.1066ZM19.9034 60.6076C19.3069 61.5819 18.9609 62.6807 18.7725 63.7952C19.7413 63.8187 20.7277 63.6498 21.6746 63.3041C22.1502 63.1317 22.6092 62.9132 23.0638 62.6537C23.5307 62.3977 23.9836 62.0991 24.4154 61.7569C25.2852 61.0743 25.9589 60.268 26.5729 59.4148C27.1729 58.558 27.5645 57.6055 27.9026 56.6425C26.9548 56.4631 25.9545 56.4666 24.9655 56.6904C23.995 56.922 23.0305 57.3721 22.1178 58.06C21.1823 58.7409 20.4815 59.6281 19.9034 60.6067V60.6076ZM32.0406 42.4242C32.5399 42.3415 33.0418 42.2161 33.5385 42.0446C35.5067 41.3428 37.1386 40.1003 38.3019 38.5287C37.5109 38.0769 36.6008 37.7617 35.6548 37.6676C34.7096 37.5727 33.7014 37.6763 32.6634 38.0063C31.6079 38.3233 30.703 38.9014 29.8691 39.5927C29.0247 40.2771 28.3616 41.1486 27.8351 42.0855C28.6936 42.4146 29.6291 42.5766 30.5874 42.567C31.0683 42.5626 31.5492 42.513 32.0397 42.4242H32.0406ZM49.0674 22.6718C47.0211 22.6466 44.748 23.6435 43.2405 25.0192C43.9062 25.5773 44.6946 26.01 45.5574 26.2956C46.4202 26.5803 47.3531 26.7118 48.3622 26.7205C49.3687 26.7257 50.3068 26.5281 51.2143 26.2425C52.127 25.9656 52.9636 25.5311 53.723 24.9878C52.5712 23.6931 51.1364 22.7214 49.0674 22.6727V22.6718ZM66.0302 17.1638C66.4813 17.3014 66.9306 17.3824 67.3861 17.4494C67.8434 17.5226 68.2998 17.5574 68.7517 17.553C69.6557 17.5496 70.5326 17.365 71.3892 17.1334C71.0555 16.3889 70.5676 15.702 69.9273 15.1177C69.2931 14.557 68.5091 14.1051 67.5841 13.8039C67.1225 13.6532 66.6451 13.5461 66.1624 13.4808C65.6807 13.4216 65.2006 13.4303 64.718 13.4643C64.2353 13.5017 63.7544 13.5775 63.2814 13.6898C63.0449 13.7455 62.811 13.8108 62.5798 13.884C62.3512 13.9658 62.1287 14.0616 61.9088 14.1617C62.3459 14.8574 62.917 15.4451 63.6178 15.9675C64.3168 16.4847 65.1288 16.8965 66.0293 17.1638H66.0302ZM67.8977 139.208C69.4972 141.197 71.0152 143.212 72.4649 145.246C73.1955 141.473 72.3344 137.252 69.3071 133.362L68.9979 132.976C68.9042 132.852 68.7605 132.714 68.7062 132.605C68.5617 132.375 68.4154 132.149 68.2647 131.93C67.9678 131.487 67.6586 131.067 67.3458 130.657C66.7178 129.843 66.0608 129.098 65.3872 128.416C64.0365 127.054 62.6096 125.96 61.1126 125.12C60.2638 126.979 59.7137 128.98 59.6453 131.05C59.577 133.115 59.9914 135.259 61.0346 137.317C61.9841 139.2 63.3787 140.851 65.0771 142.179C65.29 142.343 65.5063 142.504 65.7271 142.662C65.961 142.823 66.2089 142.982 66.4533 143.136C66.9447 143.445 67.4422 143.742 67.9502 144.021C68.962 144.586 70.0087 145.087 71.0765 145.539C69.8511 143.47 68.5599 141.415 67.1891 139.377C66.8133 138.858 66.5934 138.382 66.3131 137.89C66.0494 137.396 65.791 136.909 65.544 136.414C65.0473 135.432 64.591 134.438 64.167 133.452C64.6873 134.412 65.2488 135.369 65.8453 136.322C66.4603 137.277 67.0174 138.192 67.8968 139.207L67.8977 139.208ZM48.0241 127.695L48.215 128.473L48.6197 130.051L49.0568 131.656C49.2075 132.196 49.3599 132.745 49.5465 133.258C49.9048 134.304 50.2858 135.366 50.6896 136.445C51.4386 134.759 51.8905 132.919 52.0675 131.042C52.1603 130.097 52.1638 129.171 52.1323 128.197C52.1052 127.219 52.0105 126.239 51.845 125.273C51.4534 123.252 50.9349 121.268 50.0861 119.626C49.3415 117.866 48.2737 116.416 47.1262 115.031C45.7711 116.453 44.6639 118.108 43.9386 119.995C43.5637 120.951 43.336 121.914 43.2081 122.939C43.0828 123.963 43.0723 125.038 43.1888 126.155C43.2151 126.411 43.2484 126.667 43.2878 126.921C43.3307 127.172 43.3894 127.411 43.449 127.655C43.5707 128.141 43.717 128.624 43.8861 129.102C44.0551 129.581 44.2479 130.054 44.4625 130.523C44.6806 130.985 44.8996 131.468 45.1843 131.886C46.288 133.598 47.6737 135.239 49.3941 136.449C49.1041 135.366 48.8186 134.326 48.5891 133.251C48.3701 132.161 48.173 131.087 47.9969 130.031C47.615 127.958 47.4573 125.772 47.3207 123.738C47.4836 124.768 47.6658 125.82 47.8673 126.891L48.0241 127.696V127.695ZM33.2731 113.536L33.1855 114.327L33.1364 115.105C33.0278 117.178 32.8911 119.398 33.0146 121.55C34.2261 120.266 35.1993 118.762 35.9465 117.121C36.7278 115.452 37.2814 113.65 37.5547 111.803C38.2677 107.758 37.7001 104.173 36.4326 100.925C34.7674 101.798 33.2608 102.96 32.0327 104.448C31.4274 105.188 30.8554 106.027 30.4323 106.918C30.0119 107.807 29.6799 108.776 29.4513 109.823C29.2542 110.773 29.0956 111.782 29.1412 112.737C29.164 113.706 29.2761 114.685 29.4697 115.662C29.6387 116.655 29.9987 117.571 30.3903 118.495C30.59 118.954 30.8072 119.409 31.0411 119.857C31.2724 120.305 31.5203 120.749 31.8216 121.153L31.8698 120.365L31.9539 119.56L32.1396 117.974C32.2701 116.926 32.4137 115.899 32.5705 114.893C32.9577 112.834 33.4071 110.851 33.9239 108.947C33.7408 109.946 33.612 110.942 33.4701 111.975L33.2757 113.536H33.2731ZM30.8055 88.13C31.1454 86.433 31.4318 84.7143 31.268 83.0374C29.4933 83.2916 27.7729 83.8584 26.2032 84.8075C25.4184 85.2811 24.6721 85.8505 23.9748 86.5201C23.6279 86.8545 23.2881 87.2149 22.9701 87.5998C22.6732 87.9811 22.3911 88.3886 22.1266 88.8205C21.1797 90.3964 20.4377 92.2092 20.2424 94.0646C20.118 94.9971 20.0672 95.9531 20.0882 96.9144C20.1574 97.8625 20.3186 98.8098 20.535 99.7493C20.9624 98.8168 21.3978 97.9061 21.8375 97.0171C22.0486 96.5757 22.2956 96.1299 22.5461 95.6884L23.2924 94.385C23.7926 93.5274 24.2963 92.6924 24.8035 91.8792C25.047 91.4752 25.336 91.0668 25.6164 90.6672L26.4599 89.483L25.7136 90.763L25.3439 91.416L25.0154 92.069C24.5784 92.9458 24.1439 93.8443 23.7138 94.7672L23.0726 96.1682L22.519 97.5813C22.1546 98.5347 21.7954 99.5099 21.4433 100.508C22.9587 99.7571 24.3567 98.7236 25.5831 97.4934C26.8111 96.2622 27.829 94.8456 28.7724 93.2496C29.2577 92.4016 29.6554 91.5501 29.9663 90.702C30.3009 89.8479 30.6163 88.9833 30.8099 88.1317L30.8055 88.13ZM23.6761 70.3088C22.9876 70.9592 22.2956 71.6288 21.6001 72.3201C20.9423 73.0158 20.2879 73.7315 19.6275 74.4689C19.2999 74.8372 18.9644 75.2108 18.6411 75.5904L17.7109 76.7458C19.3139 76.5708 20.8626 76.098 22.3745 75.3919C23.903 74.6857 25.3185 73.7393 26.6237 72.5926C29.446 70.132 31.2829 67.2344 32.2158 64.1217C30.5453 63.7917 28.7715 63.7499 27.0687 64.113C26.2181 64.295 25.3728 64.5736 24.5416 64.9593C23.7199 65.3467 22.8667 65.8309 22.1309 66.4456C19.313 68.6623 17.5795 72.1102 17.124 75.7671C17.7976 75.0697 18.5273 74.3958 19.2236 73.741C19.9393 73.088 20.6015 72.4489 21.354 71.8403C22.837 70.6214 24.249 69.4738 25.7968 68.4316L24.7141 69.3502C24.3532 69.6619 24.0247 69.984 23.677 70.3079L23.6761 70.3088ZM22.3963 52.3814C23.2276 51.9791 24.0966 51.6125 24.9322 51.253C25.7845 50.9003 26.5843 50.5433 27.455 50.2403C29.1771 49.6256 30.8107 49.0492 32.5337 48.6035L31.2662 49.0841C30.8449 49.2504 30.4437 49.4323 30.0276 49.6126C29.2008 49.9748 28.3642 50.3544 27.518 50.7488C26.7025 51.1589 25.8853 51.5882 25.0549 52.0331L23.8075 52.7148L22.5996 53.4445C24.0861 53.8075 25.6207 53.8876 27.2036 53.7449C28.7978 53.6064 30.371 53.2163 31.9127 52.606C35.2396 51.3035 37.8359 49.2634 39.6842 46.7315C36.8793 45.0728 33.4596 44.452 29.9015 45.6571C26.6631 46.7498 24.0011 49.2713 22.3963 52.3814ZM50.6353 31.2724C50.0309 30.8005 49.3748 30.3878 48.667 30.0448C47.9593 29.7026 47.2007 29.4301 46.3922 29.2403C45.9884 29.1445 45.5714 29.0696 45.144 29.0165C44.7217 28.9703 44.2952 28.9547 43.8537 28.9573C43.0496 28.9643 42.2419 29.0505 41.4413 29.2072C40.6433 29.3665 39.8882 29.6373 39.1305 29.949C38.3755 30.2633 37.6353 30.6403 36.9652 31.1122C36.2863 31.5746 35.6267 32.0839 35.0188 32.6481C35.8983 32.5593 36.7812 32.4949 37.6441 32.4348C38.5165 32.3834 39.346 32.3138 40.2202 32.3112C41.0839 32.2981 41.9353 32.2964 42.7736 32.3051C43.195 32.3112 43.6049 32.312 44.0262 32.3303L45.2876 32.4017L43.9973 32.4453L42.7228 32.5428C41.867 32.6133 40.9981 32.6951 40.116 32.7874C39.2549 32.9006 38.3886 33.0321 37.5065 33.1723L36.176 33.3926C35.7345 33.4727 35.3044 33.5693 34.8629 33.6625C36.0761 34.4557 37.4102 35.0016 38.8818 35.376C40.349 35.7478 41.8802 35.8845 43.4586 35.8113C46.8591 35.6668 49.847 34.6089 52.3031 32.8702C51.8012 32.2903 51.2432 31.7513 50.6353 31.2733V31.2724ZM58.1081 20.4411L56.901 20.2034C56.0899 20.0484 55.2647 19.8987 54.4255 19.7567C53.5934 19.627 52.7639 19.5338 51.9124 19.4311C52.756 20.4942 53.808 21.4119 54.9993 22.1503C56.1853 22.8773 57.5545 23.5103 58.9928 23.889C59.3799 23.9961 59.7592 24.071 60.1473 24.1537C60.5362 24.2382 60.9225 24.3052 61.3044 24.3557C62.0726 24.4611 62.8189 24.4785 63.5635 24.4663C65.0666 24.4759 66.4909 24.1929 67.8802 23.7959C66.7616 21.142 64.6059 18.8486 61.406 17.8378C61.0407 17.7202 60.6658 17.6105 60.2918 17.5339C59.9204 17.4625 59.5446 17.4094 59.1645 17.3711C58.405 17.2962 57.6307 17.2866 56.8528 17.3388C56.0837 17.4094 55.3243 17.5652 54.5675 17.7646C54.1899 17.8656 53.8141 17.9805 53.4419 18.1085C53.074 18.2435 52.7183 18.4089 52.3644 18.5778C53.9718 18.8922 55.5949 19.3615 57.1322 19.7951C57.8987 20.0066 58.6748 20.2713 59.4325 20.5343C60.1902 20.7972 60.9348 21.0645 61.6644 21.3379C60.8953 21.1298 60.1114 20.9261 59.3134 20.7293C58.9157 20.6318 58.5101 20.5299 58.1072 20.4402L58.1081 20.4411ZM46.6401 149.51C48.2107 149.992 49.8294 150.192 51.3834 150.072C54.5 149.833 56.7705 148.395 58.052 146.466C55.4075 145.26 52.4704 144.601 49.4755 144.706C47.9812 144.759 46.5858 145.007 45.3971 145.435C44.1944 145.87 43.138 146.505 42.2936 147.315C42.9479 147.782 43.6356 148.208 44.346 148.584C45.0756 148.958 45.8596 149.269 46.641 149.51H46.6401ZM22.4305 128.875C22.8816 129.49 23.3774 130.081 23.9091 130.633C24.1745 130.909 24.4496 131.175 24.7325 131.431C25.0119 131.69 25.3063 131.932 25.6251 132.146C26.8768 133.024 28.2355 133.709 29.63 134.121C32.497 134.877 35.0066 134.374 36.8075 133.091C35.8597 132.077 34.749 131.216 33.5525 130.485C32.3953 129.717 31.1147 129.115 29.7386 128.716C29.0396 128.526 28.3958 128.354 27.7475 128.254C27.102 128.152 26.4669 128.108 25.8485 128.122C24.6143 128.148 23.4527 128.401 22.4296 128.875H22.4305ZM12.3553 108.712C12.5541 109.01 12.7591 109.3 12.9799 109.577C13.2155 109.848 13.4608 110.109 13.713 110.359C14.2193 110.858 14.7607 111.31 15.3309 111.706C17.5786 113.31 20.0646 113.602 22.1012 113.014C21.8235 112.421 21.5029 111.848 21.1394 111.296C20.8021 110.734 20.443 110.184 20.0313 109.667C19.6231 109.149 19.1737 108.659 18.6858 108.202C18.4414 107.973 18.1874 107.753 17.9237 107.541C17.6706 107.325 17.4192 107.114 17.152 106.914C15.0287 105.318 12.6356 104.605 10.5009 104.818C10.9223 106.194 11.5661 107.521 12.3536 108.713L12.3553 108.712ZM13.1437 84.0613C13.0219 83.7696 12.9133 83.4797 12.7793 83.195C12.5174 82.6247 12.209 82.0718 11.8543 81.5415C11.1456 80.481 10.303 79.6034 9.4016 78.9251C8.52915 78.2468 7.57086 77.7697 6.57928 77.5233C6.44351 78.8851 6.62308 80.2721 6.96032 81.5885C7.13025 82.2468 7.34749 82.8859 7.61115 83.4962C7.74605 83.801 7.88094 84.0996 8.04825 84.3878C8.22257 84.676 8.40652 84.9546 8.60273 85.2236C10.1733 87.3795 12.1784 88.4757 14.1983 88.6254C14.1431 87.3769 13.9075 86.1379 13.4905 84.9459C13.3863 84.6481 13.2707 84.353 13.1437 84.0613ZM12.0785 59.8327C12.3404 60.3412 12.6523 60.8018 12.9895 61.2093C13.6675 62.0242 14.4734 62.6311 15.3546 63.0316C15.6883 61.891 15.8442 60.6964 15.9161 59.5088C15.9695 58.3168 15.8127 57.0979 15.5569 55.9285C15.2784 54.7531 14.8255 53.7005 14.2404 52.8028C13.6745 51.9121 12.9799 51.1781 12.1714 50.6382C11.6064 51.8102 11.3129 53.1075 11.1666 54.3848C11.0055 55.6586 11.1421 56.962 11.4592 58.1679C11.6204 58.7722 11.8297 59.3277 12.0785 59.8327ZM23.3503 37.8418C23.6954 38.7847 24.2201 39.5831 24.8797 40.2214C25.5445 39.308 26.0683 38.2902 26.5107 37.2506C26.9417 36.204 27.1843 35.0599 27.3253 33.9359C27.4488 32.7988 27.3761 31.7174 27.1344 30.7335C26.8926 29.7496 26.5107 28.8876 25.9527 28.1502C24.2674 29.9359 23.1173 32.2737 22.9526 34.6446C22.9053 35.2341 22.9149 35.7957 22.9771 36.3259C23.0489 36.8631 23.1803 37.3725 23.3511 37.8426L23.3503 37.8418ZM45.4488 17.2396C46.3764 15.2866 46.2529 13.4573 45.7037 11.8109C44.6876 12.3681 43.7486 13.0873 42.9383 13.9014C42.1333 14.7233 41.5044 15.7081 41.0515 16.7215C40.5943 17.7315 40.4112 18.7589 40.4287 19.7062C40.4454 20.6536 40.667 21.5277 41.0585 22.3009C42.7973 21.0532 44.5369 19.2221 45.4497 17.2405L45.4488 17.2396ZM61.5637 11.1213C61.8019 11.0368 62.0367 10.9445 62.2679 10.8427C62.7305 10.6398 63.1798 10.403 63.6099 10.133C64.0409 9.86662 64.45 9.5523 64.8441 9.23276C65.2401 8.91931 65.6123 8.57191 65.9575 8.19403C66.6468 7.43653 67.1645 6.61809 67.5088 5.78136C67.8592 4.96814 68.0335 4.13054 68.0212 3.31209C66.9438 3.47926 65.9075 3.88761 64.9545 4.39871C64.4789 4.65643 64.026 4.94724 63.6047 5.26852C63.1851 5.59677 62.804 5.98074 62.4589 6.37865C61.7695 7.18142 61.3009 8.02337 61.0372 8.86446C60.7718 9.70119 60.7272 10.5771 60.8524 11.3807C61.0924 11.3032 61.3281 11.2136 61.5637 11.1213ZM63.4715 153.586C62.4344 154.024 61.074 154.371 59.7846 154.708C58.4803 155.036 57.1515 155.336 55.7964 155.599C57.0648 155.235 58.3051 154.85 59.5218 154.428C60.1306 154.22 60.7333 153.998 61.3289 153.779C61.9106 153.548 62.5535 153.336 63.0414 153.074C65.1253 152.071 67.2679 151.121 69.4534 150.22C68.3725 149.929 67.267 149.733 66.1598 149.622C65.6053 149.57 65.05 149.537 64.4964 149.531C64.2178 149.527 63.9463 149.531 63.6633 149.537C63.3682 149.537 63.0721 149.543 62.7751 149.554C60.4074 149.628 58.0248 149.92 55.6668 150.465C50.5276 151.665 46.2976 153.874 43.9132 157.255C46.8214 158.743 49.9424 159.684 52.975 160.024C54.4921 160.197 55.9891 160.216 57.4344 160.091C58.1571 160.032 58.8675 159.928 59.5613 159.796C59.9081 159.727 60.2515 159.652 60.5905 159.567C60.7771 159.531 60.8717 159.464 61.0162 159.412L61.4139 159.239C65.3785 157.471 68.5082 154.696 70.3092 151.294C67.9835 152 65.6991 152.763 63.4706 153.587L63.4715 153.586ZM47.3163 141.842C46.1084 141.888 44.8777 141.918 43.6233 141.931C42.99 141.948 42.3777 141.922 41.7584 141.893L39.8812 141.8L37.9717 141.68L37.0055 141.609L36.0577 141.499C34.792 141.343 33.5061 141.169 32.2 140.973C34.7306 141.12 37.1281 141.259 39.5869 141.148C40.801 141.111 41.9949 141.058 43.1652 140.988C44.3468 140.902 45.5425 140.75 46.6961 140.611C44.6867 139.57 42.6711 138.569 40.4848 137.887C39.9303 137.727 39.4126 137.526 38.866 137.368C38.3238 137.204 37.7746 137.058 37.2175 136.93C36.6604 136.801 36.0954 136.691 35.5251 136.598C34.9584 136.512 34.3916 136.427 33.8223 136.341C32.5854 136.175 31.3714 136.108 30.1967 136.136C29.0229 136.162 27.8737 136.296 26.8234 136.476C24.7001 136.859 22.7686 137.627 21.1691 138.787C23.1759 140.977 25.6602 142.701 28.1776 144.032C30.8002 145.249 33.443 146.099 36.1348 146.196C37.3769 146.263 38.5428 146.209 39.629 146.046C40.7178 145.877 41.7593 145.554 42.6948 145.168C44.5755 144.382 46.111 143.237 47.3163 141.843V141.842ZM29.0623 124.696C26.7919 124.089 24.6572 123.253 22.3911 122.387L21.5449 122.055L20.7268 121.691L19.0826 120.936C17.9859 120.418 16.8542 119.891 15.7549 119.315C17.971 120.217 20.1688 121.016 22.3263 121.72C23.4414 122.048 24.5433 122.356 25.6312 122.642L27.2526 123.057L28.0559 123.252L28.8845 123.416C28.5096 123.035 28.161 122.634 27.7975 122.246C27.4322 121.86 27.0538 121.483 26.6622 121.12C25.8861 120.388 25.0181 119.729 24.2078 119.047C23.3739 118.382 22.4883 117.766 21.5537 117.206C20.5963 116.658 19.7063 116.099 18.713 115.633C17.6399 115.117 16.5581 114.696 15.4825 114.372C14.4085 114.048 13.3994 113.788 12.3684 113.648C10.324 113.36 8.33556 113.473 6.5276 114.036C8.79281 119.16 13.0184 123.289 17.6137 125.189C19.8272 126.045 21.9137 126.379 23.8189 126.276C25.7609 126.145 27.5277 125.576 29.0606 124.696H29.0623ZM16.693 102.074C15.8276 101.413 14.9551 100.731 14.0774 100.025L12.7591 98.9492L11.5135 97.8173C10.6805 97.0519 9.84395 96.2622 9.00391 95.4507L8.37323 94.8369L7.78196 94.2074L6.60118 92.9205L7.83627 94.0489C8.24797 94.419 8.64915 94.7855 9.09501 95.1382C9.96483 95.846 10.832 96.5321 11.6948 97.1956L12.9851 98.1742C13.4117 98.4955 13.8383 98.8107 14.2999 99.1111C15.2022 99.7171 16.1 100.3 16.99 100.862C16.6282 99.9147 16.192 98.9927 15.7146 98.0906C15.2871 97.1747 14.7966 96.284 14.2447 95.422C13.0876 93.7085 11.9313 92.0577 10.4273 90.5897C10.0218 90.1874 9.60657 89.8061 9.18349 89.4465C8.78142 89.0843 8.37761 88.743 7.96241 88.4243C7.13288 87.7869 6.27357 87.2384 5.39499 86.7848C3.63871 85.8784 1.80709 85.3525 0 85.2829C0.309211 87.9028 0.858433 90.4991 2.00681 92.8082C2.55778 93.9653 3.14817 95.0659 3.87521 96.0646C4.62503 97.0598 5.44317 97.9679 6.32087 98.7663C7.92737 100.272 9.75723 101.229 11.5214 101.753C13.2899 102.276 15.0322 102.356 16.693 102.076V102.074ZM8.4836 74.6239C9.87987 75.6618 11.4522 76.3035 13.0272 76.5952L12.16 75.27C11.8858 74.8233 11.623 74.3732 11.3558 73.9169C10.8233 73.0044 10.2898 72.0711 9.76599 71.1177C9.28072 70.1677 8.79807 69.1969 8.3198 68.2061C8.08504 67.7107 7.83364 67.2083 7.61641 66.705L6.97258 65.1813C7.92474 67.0637 9.05297 68.8878 10.1365 70.6222C10.6673 71.4886 11.2937 72.3445 11.8718 73.1742C12.4692 74.0057 13.0377 74.8163 13.6649 75.6087C13.6114 71.7585 12.8012 67.8892 11.15 64.3176C10.6647 63.3363 10.2057 62.4378 9.64686 61.6002C9.09852 60.7652 8.49586 60.0007 7.84591 59.3164C6.55037 57.9494 5.12257 56.9142 3.51958 56.2812C2.25207 61.1196 2.67691 66.3298 4.81248 70.2896C5.82158 72.1477 7.10222 73.5861 8.48272 74.6222L8.4836 74.6239ZM14.9052 48.5007C15.8101 49.8755 17.0022 50.9569 18.3109 51.7275L17.9719 50.2656L17.696 48.7994C17.519 47.8146 17.3465 46.8098 17.1897 45.7929C17.0644 44.7907 16.9471 43.772 16.8411 42.7368C16.7911 42.2213 16.7307 41.6937 16.6957 41.1756L16.6098 39.6145C16.8577 41.5918 17.2773 43.5779 17.6811 45.4716C17.8738 46.4146 18.1541 47.3784 18.3994 48.3048C18.6604 49.2391 18.9057 50.1454 19.2026 51.0544C20.4176 47.603 20.9484 43.8861 20.6199 40.1787C20.2564 36.1422 18.7804 32.7352 16.34 30.6098C13.699 34.5079 12.4166 39.2575 13.0394 43.4638C13.3381 45.4394 14.0126 47.1329 14.9061 48.5007H14.9052ZM31.6087 29.2516L31.826 27.8576C31.9775 26.9234 32.1369 25.9734 32.3174 25.02C32.518 24.0867 32.7308 23.1428 32.9577 22.1877L33.3081 20.7476L33.7128 19.331L33.4465 20.718C33.3642 21.1803 33.2985 21.6557 33.2284 22.1198C33.0917 23.0523 32.9682 23.9743 32.857 24.8851C32.7343 25.7854 32.6818 26.7318 32.6091 27.6347C32.546 28.5472 32.4873 29.4414 32.4532 30.3365C33.0024 29.6643 33.5209 28.9677 33.9852 28.2311C34.4407 27.485 34.8909 26.7457 35.2904 25.9743C35.6933 25.2064 36.0253 24.3844 36.3398 23.5747C36.6577 22.7676 36.9205 21.9317 37.1246 21.0715C37.2367 20.6022 37.3252 20.1311 37.4005 19.6723C37.482 19.2213 37.5424 18.7729 37.5836 18.3306C37.666 17.4451 37.6677 16.5787 37.5915 15.7429C37.5153 14.907 37.3611 14.1025 37.129 13.3398C36.9004 12.5832 36.5964 11.8718 36.2084 11.2101C32.6818 13.8918 30.0933 17.7167 29.3418 21.6496C28.6585 25.3674 29.5748 28.4427 31.4467 30.6586C31.4992 30.1928 31.5465 29.7165 31.6114 29.2507L31.6087 29.2516ZM51.0777 13.5897C51.4946 12.8078 51.9247 12.0198 52.3697 11.2249L53.0468 10.0286C53.2798 9.63676 53.5224 9.2554 53.7651 8.8662C54.253 8.09042 54.754 7.30941 55.2708 6.52405C54.8434 7.31725 54.4291 8.10609 54.0287 8.88884C53.6284 9.67158 53.2378 10.4413 52.8839 11.2519C52.1726 12.8635 51.4823 14.3916 50.9147 16.0163C51.2564 15.7925 51.5866 15.547 51.9186 15.3084C52.2541 15.0759 52.5825 14.833 52.9023 14.5779C53.5443 14.072 54.1479 13.5096 54.7278 12.928C55.3173 12.3655 55.87 11.7595 56.3833 11.1126C56.64 10.7895 56.8861 10.4552 57.1217 10.1122C57.36 9.77433 57.5939 9.44172 57.812 9.09084C59.7102 6.00338 60.4714 2.83408 59.8512 0C57.8856 0.654756 56.0662 1.70567 54.4825 2.92115C53.6976 3.54543 52.989 4.25417 52.3487 4.98033C52.0298 5.34601 51.7302 5.72128 51.4517 6.10612C51.174 6.49184 50.9296 6.90977 50.701 7.32247C49.8575 8.8871 49.3818 10.3812 49.2863 11.8692C49.1847 13.3468 49.4151 14.7329 49.9118 15.9945C50.2876 15.2004 50.6686 14.3837 51.0777 13.5888V13.5897ZM129.273 144.706C126.277 144.6 123.341 145.259 120.697 146.466C121.978 148.395 124.249 149.833 127.365 150.072C128.919 150.192 130.538 149.993 132.109 149.51C132.889 149.268 133.674 148.957 134.403 148.584C135.113 148.207 135.802 147.782 136.455 147.315C135.61 146.505 134.554 145.87 133.351 145.435C132.163 145.007 130.767 144.76 129.274 144.706H129.273ZM149.119 134.121C150.513 133.709 151.872 133.024 153.123 132.146C153.442 131.932 153.738 131.69 154.016 131.431C154.299 131.175 154.573 130.909 154.839 130.633C155.37 130.081 155.866 129.49 156.318 128.875C155.296 128.402 154.133 128.148 152.899 128.122C152.283 128.108 151.647 128.152 151 128.254C150.352 128.354 149.708 128.526 149.009 128.716C147.633 129.115 146.352 129.717 145.194 130.485C143.999 131.215 142.888 132.076 141.94 133.091C143.741 134.374 146.25 134.877 149.118 134.121H149.119ZM158.944 109.772C158.532 110.291 158.172 110.842 157.833 111.407C157.47 111.96 157.148 112.536 156.869 113.131C158.906 113.718 161.395 113.422 163.645 111.81C164.217 111.413 164.759 110.959 165.266 110.458C165.52 110.207 165.764 109.945 166.001 109.673C166.222 109.396 166.428 109.104 166.627 108.806C167.416 107.61 168.061 106.278 168.485 104.898C166.349 104.687 163.956 105.404 161.83 107.008C161.562 107.208 161.31 107.421 161.056 107.638C160.792 107.85 160.538 108.072 160.293 108.301C159.804 108.76 159.353 109.253 158.944 109.773V109.772ZM167.147 81.5502C166.791 82.0822 166.483 82.6377 166.221 83.2089C166.087 83.4945 165.977 83.7853 165.856 84.0787C165.729 84.3713 165.614 84.6673 165.509 84.9668C165.092 86.1631 164.857 87.4056 164.8 88.6585C166.82 88.5079 168.825 87.4082 170.396 85.2445C170.593 84.9746 170.778 84.6943 170.951 84.4052C171.118 84.1161 171.253 83.8166 171.388 83.511C171.653 82.8989 171.87 82.2572 172.039 81.5964C172.377 80.2764 172.556 78.8851 172.421 77.519C171.428 77.7662 170.471 78.2451 169.598 78.9251C168.697 79.606 167.854 80.4862 167.145 81.5502H167.147ZM164.508 52.8028C163.923 53.7013 163.47 54.7531 163.192 55.9285C162.936 57.0979 162.779 58.3168 162.833 59.5088C162.904 60.6964 163.06 61.891 163.394 63.0316C164.276 62.632 165.082 62.0251 165.76 61.2093C166.097 60.8018 166.409 60.3412 166.671 59.8327C166.921 59.3277 167.129 58.7713 167.29 58.1679C167.607 56.962 167.744 55.6595 167.583 54.3848C167.437 53.1066 167.143 51.8102 166.578 50.6382C165.77 51.1789 165.075 51.9121 164.509 52.8028H164.508ZM152.238 37.2506C152.68 38.2902 153.204 39.308 153.869 40.2214C154.529 39.5831 155.053 38.7847 155.398 37.8418C155.569 37.3716 155.701 36.8623 155.772 36.325C155.835 35.7957 155.844 35.2341 155.797 34.6437C155.631 32.2729 154.481 29.9351 152.797 28.1493C152.238 28.8859 151.856 29.7487 151.614 30.7326C151.373 31.7165 151.3 32.7979 151.423 33.935C151.565 35.0599 151.806 36.204 152.238 37.2497V37.2506ZM137.69 22.3009C138.082 21.5277 138.303 20.6536 138.32 19.7062C138.337 18.7589 138.154 17.7307 137.698 16.7215C137.245 15.7081 136.615 14.7242 135.811 13.9014C135.001 13.0873 134.062 12.3681 133.046 11.8109C132.496 13.4582 132.372 15.2875 133.301 17.2396C134.213 19.2213 135.953 21.0523 137.691 22.3L137.69 22.3009ZM112.79 8.19403C113.135 8.57278 113.508 8.91931 113.904 9.23276C114.298 9.5523 114.706 9.86662 115.138 10.133C115.568 10.403 116.017 10.6398 116.48 10.8427C116.712 10.9437 116.947 11.0368 117.185 11.1213C117.42 11.2136 117.656 11.3032 117.896 11.3807C118.021 10.5771 117.977 9.70119 117.711 8.86446C117.449 8.02337 116.979 7.18142 116.291 6.37865C115.945 5.98074 115.564 5.59677 115.145 5.26852C114.723 4.94724 114.27 4.65643 113.794 4.39871C112.842 3.88761 111.806 3.47926 110.728 3.31209C110.716 4.13054 110.89 4.96814 111.241 5.78136C111.585 6.61809 112.103 7.4374 112.792 8.19403H112.79ZM123.081 150.465C120.722 149.92 118.34 149.628 115.972 149.554C115.676 149.544 115.38 149.538 115.084 149.537C114.802 149.532 114.531 149.528 114.251 149.531C113.698 149.536 113.142 149.57 112.588 149.622C111.481 149.733 110.375 149.929 109.294 150.22C111.48 151.121 113.622 152.071 115.706 153.074C116.193 153.336 116.837 153.548 117.419 153.779C118.014 153.998 118.617 154.221 119.225 154.428C120.443 154.85 121.683 155.236 122.951 155.599C121.596 155.336 120.267 155.036 118.963 154.708C117.675 154.371 116.313 154.024 115.276 153.586C113.047 152.762 110.762 151.999 108.437 151.293C110.238 154.695 113.368 157.47 117.332 159.238L117.73 159.411C117.873 159.464 117.969 159.53 118.156 159.566C118.494 159.651 118.838 159.727 119.185 159.795C119.878 159.928 120.589 160.032 121.312 160.09C122.757 160.216 124.254 160.197 125.771 160.023C128.804 159.684 131.925 158.742 134.833 157.254C132.449 153.873 128.219 151.663 123.08 150.464L123.081 150.465ZM148.551 136.137C147.375 136.109 146.162 136.176 144.925 136.342C144.356 136.427 143.789 136.513 143.223 136.598C142.651 136.692 142.087 136.802 141.53 136.931C140.973 137.06 140.423 137.206 139.882 137.369C139.335 137.527 138.817 137.728 138.263 137.888C136.077 138.571 134.061 139.571 132.052 140.611C133.205 140.751 134.401 140.904 135.583 140.989C136.754 141.059 137.948 141.112 139.162 141.149C141.62 141.26 144.019 141.121 146.549 140.974C145.243 141.169 143.957 141.344 142.691 141.5L141.743 141.61L140.777 141.681L138.867 141.801L136.99 141.894C136.37 141.922 135.759 141.949 135.125 141.932C133.872 141.918 132.64 141.889 131.432 141.843C132.638 143.237 134.173 144.383 136.054 145.168C136.989 145.554 138.03 145.877 139.121 146.046C140.205 146.209 141.371 146.263 142.614 146.196C145.306 146.099 147.948 145.249 150.572 144.032C153.088 142.702 155.574 140.978 157.58 138.787C155.981 137.627 154.049 136.86 151.926 136.476C150.876 136.296 149.727 136.162 148.553 136.136L148.551 136.137ZM166.608 113.755C165.577 113.897 164.566 114.158 163.492 114.486C162.416 114.812 161.332 115.234 160.257 115.754C159.262 116.222 158.37 116.784 157.411 117.335C156.476 117.899 155.588 118.517 154.752 119.185C153.94 119.869 153.069 120.531 152.291 121.267C151.899 121.631 151.52 122.008 151.153 122.397C150.788 122.787 150.439 123.188 150.063 123.571L150.892 123.405L151.697 123.207L153.321 122.789C154.41 122.5 155.514 122.191 156.631 121.86C158.791 121.152 160.993 120.347 163.212 119.44C162.112 120.018 160.978 120.548 159.88 121.069L158.234 121.828L157.415 122.194L156.567 122.529C154.296 123.399 152.158 124.242 149.883 124.854C151.417 125.732 153.186 126.301 155.129 126.429C157.037 126.53 159.126 126.192 161.343 125.331C165.946 123.421 170.179 119.278 172.451 114.138C170.643 113.577 168.654 113.464 166.608 113.756V113.755ZM173.604 86.8066C172.726 87.2611 171.865 87.8122 171.037 88.4522C170.622 88.7726 170.217 89.1148 169.815 89.4778C169.392 89.8392 168.977 90.2214 168.571 90.6263C167.066 92.1003 165.909 93.7564 164.75 95.4769C164.197 96.3423 163.706 97.2365 163.278 98.156C162.8 99.0615 162.363 99.987 162 100.937C162.891 100.373 163.789 99.7868 164.692 99.1781C165.154 98.8769 165.581 98.56 166.008 98.2369L167.299 97.2539C168.162 96.5879 169.03 95.8991 169.901 95.1878C170.346 94.8343 170.748 94.4669 171.159 94.0951L172.394 92.9623L171.214 94.2535L170.622 94.8857L169.991 95.5012C169.151 96.3162 168.312 97.1077 167.479 97.8773L166.233 99.0136L164.913 100.094C164.034 100.803 163.161 101.488 162.295 102.152C163.956 102.431 165.7 102.349 167.469 101.822C169.235 101.296 171.066 100.334 172.673 98.8229C173.552 98.021 174.37 97.1094 175.12 96.1116C175.847 95.1086 176.44 94.0045 176.991 92.8448C178.141 90.5287 178.691 87.9245 179 85.2968C177.192 85.3673 175.361 85.8958 173.604 86.8048V86.8066ZM165.084 75.6095C165.711 74.8172 166.279 74.0075 166.877 73.1751C167.455 72.3445 168.082 71.4894 168.612 70.6231C169.696 68.8878 170.824 67.0637 171.777 65.1822L171.133 66.7059C170.916 67.2092 170.664 67.7115 170.43 68.207C169.951 69.1978 169.469 70.1686 168.983 71.1185C168.461 72.0719 167.926 73.0053 167.394 73.9178C167.126 74.374 166.865 74.825 166.59 75.2708L165.722 76.596C167.297 76.3035 168.87 75.6618 170.266 74.6248C171.645 73.5887 172.927 72.1494 173.936 70.2922C176.072 66.3324 176.496 61.1222 175.229 56.2838C173.626 56.9168 172.198 57.952 170.903 59.319C170.253 60.0034 169.65 60.7678 169.102 61.6028C168.544 62.4395 168.085 63.339 167.599 64.3202C165.949 67.8918 165.138 71.7611 165.085 75.6113L165.084 75.6095ZM160.349 48.3048C160.594 47.3784 160.874 46.4146 161.067 45.4716C161.47 43.5787 161.89 41.5918 162.139 39.6145L162.052 41.1756C162.017 41.6937 161.957 42.2213 161.907 42.7368C161.8 43.772 161.684 44.7907 161.557 45.7929C161.401 46.8098 161.229 47.8137 161.051 48.7994L160.776 50.2656L160.437 51.7275C161.745 50.9569 162.937 49.8755 163.842 48.5007C164.735 47.132 165.41 45.4385 165.707 43.4638C166.33 39.2584 165.049 34.5079 162.407 30.6098C159.966 32.7343 158.49 36.1413 158.127 40.1787C157.798 43.8861 158.328 47.6039 159.544 51.0544C159.841 50.1454 160.086 49.2382 160.347 48.3048H160.349ZM141.348 19.6732C141.423 20.132 141.512 20.6031 141.624 21.0723C141.827 21.9326 142.091 22.7684 142.409 23.5756C142.723 24.3853 143.055 25.2072 143.458 25.9752C143.858 26.7466 144.309 27.4858 144.763 28.232C145.228 28.9686 145.746 29.6652 146.295 30.3373C146.261 29.4431 146.203 28.5481 146.14 27.6356C146.068 26.7318 146.015 25.7854 145.893 24.886C145.782 23.9752 145.658 23.0532 145.521 22.1207C145.451 21.6566 145.385 21.1812 145.303 20.7189L145.037 19.3319L145.441 20.7485L145.792 22.1886C146.018 23.1437 146.232 24.0875 146.432 25.0209C146.612 25.9743 146.771 26.9251 146.923 27.8585L147.14 29.2524C147.205 29.7183 147.252 30.1945 147.304 30.6604C149.176 28.4445 150.093 25.3692 149.409 21.6514C148.657 17.7193 146.069 13.8935 142.542 11.2118C142.154 11.8735 141.849 12.5858 141.621 13.3415C141.389 14.1042 141.235 14.9088 141.158 15.7446C141.083 16.5805 141.084 17.4468 141.166 18.3323C141.207 18.7755 141.268 19.223 141.349 19.674L141.348 19.6732ZM121.626 10.113C121.862 10.4569 122.108 10.7904 122.364 11.1134C122.877 11.7604 123.43 12.3664 124.02 12.9288C124.6 13.5104 125.203 14.0738 125.845 14.5788C126.166 14.833 126.494 15.0768 126.83 15.3093C127.162 15.5478 127.492 15.7934 127.834 16.0171C127.265 14.3916 126.575 12.8644 125.864 11.2527C125.51 10.4421 125.12 9.67245 124.72 8.88971C124.32 8.10696 123.905 7.31812 123.478 6.52492C123.994 7.31115 124.496 8.09129 124.983 8.86707C125.226 9.25627 125.468 9.63763 125.702 10.0294L126.379 11.2258C126.823 12.0198 127.254 12.8087 127.671 13.5905C128.08 14.3855 128.461 15.2022 128.836 15.9963C129.333 14.7346 129.564 13.3485 129.461 11.8709C129.366 10.3829 128.89 8.88884 128.047 7.32421C127.818 6.91151 127.574 6.49358 127.296 6.10786C127.017 5.72389 126.718 5.34775 126.399 4.98207C125.759 4.25504 125.05 3.54718 124.265 2.92289C122.681 1.70742 120.862 0.655627 118.897 0.00174137C118.276 2.83583 119.038 6.00512 120.936 9.09258C121.154 9.44346 121.388 9.77607 121.626 10.1139V10.113ZM122.237 131.851C121.416 132.69 120.686 133.674 120.089 134.805C118.898 137.063 118.435 139.53 118.853 141.815C121.424 140.989 123.693 139.175 124.86 136.773C125.447 135.568 125.705 134.349 125.716 133.123C125.725 131.912 125.48 130.757 125.028 129.695C124.504 129.982 124.008 130.315 123.539 130.694C123.077 131.053 122.647 131.427 122.236 131.85L122.237 131.851ZM140.255 116.359C139.86 116.777 139.503 117.229 139.187 117.712C139.029 117.954 138.881 118.204 138.744 118.461C138.611 118.722 138.479 118.983 138.342 119.237C137.815 120.271 137.464 121.427 137.312 122.68C136.94 125.112 137.383 127.49 138.549 129.402C139.533 128.566 140.42 127.59 141.078 126.483C141.698 125.339 142.128 124.102 142.298 122.836C142.396 122.213 142.376 121.569 142.311 120.965C142.244 120.36 142.117 119.782 141.936 119.236C141.573 118.143 140.995 117.179 140.255 116.36V116.359ZM151.012 98.9648C150.554 99.9827 150.249 101.064 150.153 102.201C150.127 102.485 150.118 102.773 150.113 103.061C150.094 103.344 150.087 103.629 150.094 103.916C150.108 104.491 150.172 105.076 150.291 105.666C150.806 108.043 151.889 110.023 153.551 111.376C153.879 110.846 154.169 110.29 154.414 109.716C154.633 109.13 154.786 108.518 154.901 107.905C155.012 107.29 155.073 106.67 155.078 106.054C155.08 105.746 155.069 105.438 155.043 105.134C155.006 104.825 154.944 104.513 154.873 104.207C154.292 101.75 152.875 99.9861 151.012 98.9666V98.9648ZM161.099 84.6124C161.054 84.3199 160.998 84.0299 160.929 83.7444C160.855 83.4579 160.745 83.1741 160.637 82.8972C160.413 82.3417 160.141 81.8079 159.82 81.3056C159.176 80.2999 158.402 79.5111 157.526 78.9373C156.621 78.3635 155.643 78.0039 154.64 77.8437C154.628 78.9138 154.67 79.9908 154.932 81.0487C155.063 81.5772 155.241 82.1014 155.467 82.6168C155.577 82.8745 155.711 83.1305 155.836 83.3821C155.955 83.6329 156.087 83.8819 156.231 84.1266C157.387 86.083 159.137 87.5092 161.074 88.1683C161.264 86.9972 161.276 85.7835 161.098 84.6124H161.099ZM156.63 58.0609C155.717 57.373 154.753 56.9229 153.783 56.6913C152.794 56.4675 151.794 56.4631 150.845 56.6434C151.184 57.6063 151.576 58.5589 152.175 59.4156C152.79 60.2689 153.462 61.0743 154.332 61.7578C154.764 62.1 155.217 62.3986 155.684 62.6546C156.139 62.9141 156.598 63.1326 157.073 63.305C158.02 63.6507 159.006 63.8196 159.975 63.7961C159.787 62.6816 159.44 61.5828 158.843 60.6085C158.265 59.6298 157.564 58.7426 156.629 58.0617L156.63 58.0609ZM146.083 38.0055C145.046 37.6746 144.037 37.5719 143.092 37.6668C142.147 37.7608 141.237 38.076 140.446 38.5279C141.609 40.0995 143.241 41.3419 145.209 42.0437C145.707 42.2152 146.208 42.3415 146.708 42.4233C147.199 42.5121 147.679 42.5626 148.16 42.5661C149.12 42.5757 150.055 42.4129 150.913 42.0846C150.386 41.1478 149.723 40.2762 148.879 39.5919C148.046 38.9005 147.14 38.3224 146.084 38.0055H146.083ZM125.026 24.987C125.784 25.5303 126.621 25.9647 127.534 26.2416C128.442 26.5272 129.379 26.7248 130.386 26.7196C131.396 26.7109 132.328 26.5794 133.192 26.2947C134.055 26.0091 134.842 25.5764 135.509 25.0183C134.001 23.6426 131.728 22.6466 129.682 22.6709C127.614 22.7206 126.179 23.6922 125.027 24.9861L125.026 24.987ZM115.467 13.6889C114.994 13.5775 114.513 13.5009 114.031 13.4634C113.547 13.4295 113.068 13.4208 112.586 13.48C112.103 13.5453 111.626 13.6524 111.164 13.803C110.239 14.1051 109.456 14.5561 108.822 15.1169C108.182 15.7011 107.694 16.3881 107.36 17.1325C108.217 17.3641 109.094 17.5487 109.998 17.5522C110.449 17.5565 110.905 17.5217 111.362 17.4486C111.818 17.3815 112.267 17.3005 112.718 17.163C113.618 16.8948 114.431 16.4838 115.13 15.9666C115.831 15.4442 116.403 14.8565 116.84 14.1608C116.62 14.0607 116.397 13.9641 116.169 13.8831C115.938 13.8091 115.704 13.7447 115.467 13.6889ZM106.284 145.247C107.733 143.213 109.251 141.198 110.851 139.209C111.73 138.194 112.287 137.279 112.902 136.323C113.5 135.37 114.06 134.413 114.581 133.454C114.158 134.44 113.7 135.434 113.205 136.416C112.958 136.91 112.699 137.397 112.436 137.891C112.155 138.383 111.936 138.859 111.56 139.379C110.19 141.418 108.899 143.472 107.674 145.54C108.742 145.089 109.787 144.588 110.8 144.023C111.307 143.743 111.806 143.446 112.297 143.138C112.541 142.985 112.789 142.825 113.022 142.664C113.243 142.506 113.459 142.345 113.672 142.18C115.371 140.852 116.765 139.201 117.715 137.319C118.758 135.261 119.172 133.116 119.104 131.051C119.037 128.982 118.485 126.981 117.637 125.122C116.14 125.962 114.714 127.056 113.362 128.418C112.689 129.099 112.032 129.844 111.404 130.659C111.092 131.069 110.782 131.488 110.485 131.932C110.335 132.151 110.188 132.377 110.044 132.606C109.99 132.717 109.845 132.854 109.752 132.978L109.441 133.364C106.415 137.254 105.553 141.475 106.284 145.248V145.247ZM130.16 133.25C129.931 134.325 129.644 135.365 129.355 136.448C131.075 135.238 132.462 133.597 133.564 131.885C133.848 131.468 134.068 130.985 134.286 130.522C134.5 130.054 134.693 129.58 134.862 129.101C135.031 128.622 135.177 128.14 135.299 127.654C135.358 127.409 135.418 127.17 135.46 126.92C135.499 126.666 135.533 126.41 135.559 126.155C135.675 125.037 135.665 123.962 135.54 122.938C135.413 121.913 135.185 120.95 134.81 119.995C134.085 118.108 132.977 116.453 131.622 115.03C130.476 116.415 129.408 117.865 128.663 119.625C127.815 121.267 127.296 123.252 126.904 125.272C126.739 126.238 126.644 127.217 126.616 128.196C126.585 129.17 126.588 130.095 126.681 131.041C126.858 132.918 127.31 134.758 128.059 136.444C128.464 135.366 128.844 134.303 129.203 133.257C129.389 132.744 129.542 132.195 129.693 131.655L130.13 130.05L130.534 128.472L130.725 127.694L130.882 126.889C131.084 125.819 131.266 124.767 131.429 123.736C131.292 125.772 131.135 127.956 130.753 130.029C130.576 131.085 130.379 132.159 130.16 133.249L130.16 133.25ZM146.817 118.119L146.999 119.709L147.081 120.515L147.128 121.306C147.431 120.9 147.679 120.456 147.912 120.005C148.146 119.556 148.364 119.099 148.565 118.639C148.958 117.712 149.32 116.792 149.492 115.797C149.687 114.817 149.801 113.834 149.826 112.864C149.873 111.906 149.715 110.894 149.52 109.942C149.292 108.892 148.963 107.92 148.542 107.028C148.12 106.136 147.549 105.295 146.945 104.553C145.718 103.061 144.212 101.898 142.547 101.024C141.274 104.287 140.697 107.886 141.404 111.942C141.673 113.793 142.224 115.599 143.004 117.271C143.748 118.916 144.72 120.42 145.93 121.705C146.058 119.549 145.926 117.322 145.821 115.245L145.772 114.466L145.687 113.672L145.495 112.106C145.355 111.07 145.228 110.071 145.046 109.07C145.56 110.979 146.006 112.967 146.39 115.031C146.545 116.039 146.688 117.068 146.818 118.118L146.817 118.119ZM154.194 91.9305C154.7 92.7464 155.205 93.584 155.703 94.4442L156.449 95.7511C156.698 96.1934 156.945 96.6401 157.155 97.0833C157.595 97.974 158.029 98.8882 158.456 99.8233C158.674 98.8812 158.836 97.9305 158.906 96.9788C158.927 96.0141 158.878 95.0546 158.754 94.1186C158.56 92.2562 157.819 90.4382 156.873 88.857C156.608 88.4234 156.327 88.0151 156.03 87.632C155.713 87.2463 155.373 86.8849 155.025 86.5488C154.329 85.8767 153.582 85.3064 152.798 84.831C151.229 83.8793 149.508 83.3099 147.734 83.0556C147.57 84.7395 147.854 86.467 148.194 88.1709C148.386 89.0259 148.701 89.894 149.035 90.7508C149.345 91.6023 149.742 92.4564 150.226 93.308C151.167 94.9092 152.184 96.3293 153.412 97.5648C154.636 98.7977 156.034 99.8338 157.55 100.585C157.198 99.5839 156.84 98.6061 156.476 97.6501L155.923 96.2326L155.283 94.8273C154.854 93.9018 154.42 92.9989 153.984 92.1204L153.655 91.4647L153.286 90.81L152.54 89.5257L153.383 90.7142C153.662 91.1156 153.951 91.5248 154.194 91.9305ZM156.617 66.4464C155.88 65.8317 155.028 65.3476 154.206 64.9602C153.374 64.5745 152.529 64.2958 151.679 64.1139C149.975 63.7508 148.202 63.7926 146.531 64.1226C147.464 67.2344 149.302 70.1329 152.124 72.5935C153.429 73.7402 154.845 74.6857 156.373 75.3927C157.885 76.0997 159.435 76.5716 161.037 76.7467L160.107 75.5912C159.784 75.2116 159.448 74.8381 159.12 74.4698C158.46 73.7323 157.806 73.0158 157.148 72.3209C156.452 71.6296 155.76 70.9592 155.072 70.3097C154.724 69.9858 154.394 69.6636 154.034 69.3519L152.951 68.4333C154.498 69.4755 155.911 70.6231 157.393 71.8421C158.145 72.4507 158.808 73.0898 159.524 73.7428C160.22 74.3975 160.95 75.0714 161.624 75.7689C161.167 72.112 159.434 68.6641 156.616 66.4473L156.617 66.4464ZM153.815 51.253C154.651 51.6134 155.52 51.98 156.351 52.3814C154.747 49.2713 152.085 46.7498 148.846 45.6571C145.288 44.452 141.867 45.072 139.064 46.7315C140.911 49.2634 143.508 51.3035 146.835 52.606C148.377 53.2163 149.95 53.6064 151.543 53.7449C153.126 53.8876 154.66 53.8075 156.147 53.4445L154.939 52.7148L153.692 52.0331C152.862 51.5882 152.044 51.158 151.23 50.7488C150.383 50.3535 149.547 49.9748 148.72 49.6126C148.304 49.4332 147.903 49.2504 147.481 49.0841L146.214 48.6035C147.937 49.0492 149.571 49.6256 151.293 50.2403C152.163 50.5433 152.963 50.9003 153.815 51.253ZM135.974 32.3051C136.812 32.2964 137.664 32.299 138.527 32.3112C139.402 32.3129 140.231 32.3834 141.103 32.4348C141.966 32.4949 142.849 32.5593 143.729 32.6481C143.121 32.0839 142.462 31.5746 141.783 31.1122C141.112 30.6403 140.372 30.2633 139.617 29.949C138.859 29.6373 138.104 29.3665 137.306 29.2072C136.504 29.0505 135.697 28.9651 134.893 28.9573C134.452 28.9538 134.025 28.9703 133.603 29.0165C133.175 29.0696 132.758 29.1454 132.354 29.2403C131.546 29.4309 130.787 29.7026 130.079 30.0448C129.371 30.387 128.715 30.7997 128.111 31.2724C127.502 31.7505 126.944 32.2894 126.443 32.8693C128.898 34.608 131.887 35.6659 135.287 35.8105C136.866 35.8836 138.397 35.7469 139.865 35.3751C141.336 34.9999 142.671 34.4548 143.883 33.6616C143.442 33.5693 143.012 33.4727 142.57 33.3917L141.239 33.1714C140.357 33.0312 139.492 32.8998 138.631 32.7866C137.749 32.6943 136.88 32.6124 136.024 32.5419L134.75 32.4444L133.46 32.4009L134.721 32.3295C135.142 32.3112 135.552 32.3112 135.973 32.3042L135.974 32.3051ZM121.615 19.7959C123.152 19.3623 124.776 18.893 126.382 18.5787C126.028 18.4107 125.673 18.2452 125.305 18.1094C124.933 17.9814 124.558 17.8665 124.179 17.7655C123.422 17.567 122.662 17.4102 121.894 17.3397C121.116 17.2883 120.342 17.2971 119.582 17.3719C119.202 17.4094 118.826 17.4634 118.455 17.5348C118.082 17.6114 117.706 17.7211 117.341 17.8386C114.14 18.8495 111.984 21.1429 110.867 23.7967C112.256 24.1946 113.68 24.4767 115.183 24.4672C115.928 24.4793 116.674 24.4619 117.442 24.3566C117.825 24.3061 118.212 24.239 118.6 24.1546C118.988 24.0719 119.368 23.9961 119.755 23.8899C121.193 23.5111 122.562 22.8782 123.748 22.1511C124.94 21.4128 125.992 20.4951 126.835 19.432C125.984 19.5347 125.154 19.6279 124.322 19.7576C123.483 19.8995 122.658 20.0493 121.847 20.2043L120.641 20.442C120.238 20.5308 119.833 20.6335 119.434 20.731C118.636 20.9287 117.852 21.1324 117.083 21.3397C117.813 21.0663 118.558 20.799 119.315 20.536C120.073 20.2731 120.849 20.0084 121.615 19.7968L121.615 19.7959Z" fill="url(#paint0_linear_7277_95639)"/>
<circle cx="89" cy="79" r="72.5" stroke="url(#paint1_linear_7277_95639)" stroke-width="5"/>
<defs>
<linearGradient id="paint0_linear_7277_95639" x1="89.5004" y1="0.000870686" x2="89.5004" y2="177" gradientUnits="userSpaceOnUse">
<stop stop-color="#334E1B"/>
<stop offset="0.25" stop-color="#467D1E"/>
<stop offset="0.38" stop-color="#739951"/>
<stop offset="1" stop-color="#334E1B"/>
</linearGradient>
<linearGradient id="paint1_linear_7277_95639" x1="89" y1="9" x2="89" y2="149" gradientUnits="userSpaceOnUse">
<stop stop-color="#4D8226"/>
<stop offset="1" stop-color="#111C08"/>
</linearGradient>
</defs>
</svg>
