<svg width="25" height="24" viewBox="0 0 25 24" fill="none" xmlns="http://www.w3.org/2000/svg">
<g clip-path="url(#clip0_4958_34328)">
<path d="M12.8561 7.73114C12.7331 7.85426 12.6641 8.02118 12.6641 8.1952C12.6641 8.36923 12.7331 8.53615 12.8561 8.65927L13.6519 9.45502C13.7757 9.57453 13.9415 9.64065 14.1135 9.63912C14.2856 9.63759 14.4502 9.56854 14.5718 9.44684C14.6935 9.32514 14.7625 9.16053 14.7639 8.98846C14.7654 8.8164 14.6992 8.65064 14.5796 8.52689L13.7843 7.73114C13.6611 7.60815 13.4942 7.53906 13.3202 7.53906C13.1462 7.53906 12.9793 7.60815 12.8561 7.73114Z" fill="white"/>
<path d="M24.2139 9.14627L21.8274 6.75976C21.7665 6.69887 21.6941 6.65057 21.6145 6.61762C21.5349 6.58468 21.4496 6.56774 21.3635 6.56777H21.2728C20.4867 6.56786 19.7329 6.25587 19.1768 5.70036C18.6207 5.14485 18.3079 4.39128 18.3073 3.60527V3.51339C18.3074 3.42692 18.2905 3.34126 18.2575 3.26134C18.2245 3.18141 18.176 3.10879 18.1149 3.04764L15.7288 0.66114C15.6678 0.60015 15.5955 0.551766 15.5159 0.518754C15.4362 0.485742 15.3509 0.46875 15.2647 0.46875C15.1785 0.46875 15.0931 0.485742 15.0135 0.518754C14.9339 0.551766 14.8615 0.60015 14.8006 0.66114L5.243 10.2188H1.25C1.16381 10.2187 1.07845 10.2357 0.998806 10.2686C0.919164 10.3016 0.8468 10.3499 0.785851 10.4109C0.724903 10.4718 0.676566 10.5442 0.643604 10.6238C0.610642 10.7035 0.593701 10.7888 0.59375 10.875V14.25C0.593711 14.3362 0.610685 14.4215 0.643697 14.5011C0.676709 14.5807 0.72511 14.653 0.786125 14.7139L0.85025 14.7784C1.12651 15.053 1.34552 15.3798 1.4946 15.7397C1.64368 16.0996 1.71987 16.4855 1.71875 16.875C1.71635 17.6623 1.4036 18.4169 0.848375 18.975L0.786125 19.0373C0.725244 19.098 0.67692 19.1701 0.643912 19.2495C0.610904 19.3289 0.593859 19.414 0.59375 19.5V22.875C0.593701 22.9612 0.610642 23.0466 0.643604 23.1262C0.676566 23.2059 0.724903 23.2782 0.785851 23.3392C0.8468 23.4001 0.919164 23.4484 0.998806 23.4814C1.07845 23.5144 1.16381 23.5313 1.25 23.5313H21.125C21.2112 23.5313 21.2966 23.5144 21.3762 23.4814C21.4558 23.4484 21.5282 23.4001 21.5892 23.3392C21.6501 23.2782 21.6984 23.2059 21.7314 23.1262C21.7644 23.0466 21.7813 22.9612 21.7813 22.875V19.5C21.7812 19.326 21.712 19.1591 21.5889 19.0361L21.5266 18.9739C20.9717 18.416 20.659 17.6619 20.6563 16.875C20.6551 16.4855 20.7313 16.0996 20.8803 15.7397C21.0293 15.3799 21.2482 15.0531 21.5244 14.7784L21.5889 14.7139C21.712 14.5909 21.7812 14.424 21.7813 14.25V12.5074L24.2139 10.0744C24.2749 10.0135 24.3233 9.94114 24.3563 9.86151C24.3893 9.78188 24.4063 9.69653 24.4063 9.61033C24.4063 9.52413 24.3893 9.43877 24.3563 9.35915C24.3233 9.27952 24.2749 9.20718 24.2139 9.14627ZM20.4688 13.9838C19.7424 14.7711 19.3405 15.8038 19.3438 16.875C19.3472 17.9448 19.7482 18.9752 20.4688 19.7659V22.2188H15.4063V21.75C15.4063 21.576 15.3371 21.409 15.214 21.286C15.091 21.1629 14.924 21.0938 14.75 21.0938C14.576 21.0938 14.409 21.1629 14.286 21.286C14.1629 21.409 14.0938 21.576 14.0938 21.75V22.2188H1.90625V19.7659C2.62684 18.9752 3.02781 17.9448 3.03125 16.875C3.03432 15.8039 2.63248 14.7711 1.90625 13.9838V11.5313H14.0938V12C14.0938 12.1741 14.1629 12.341 14.286 12.4641C14.409 12.5871 14.576 12.6563 14.75 12.6563C14.924 12.6563 15.091 12.5871 15.214 12.4641C15.3371 12.341 15.4063 12.1741 15.4063 12V11.5313H20.4688V13.9838ZM21.7494 10.6838C21.7089 10.5496 21.6263 10.432 21.5139 10.3482C21.4015 10.2645 21.2652 10.2191 21.125 10.2188H19.868C19.8383 10.1143 19.7827 10.019 19.7064 9.94164L14.9334 5.16901C14.8096 5.04945 14.6439 4.98327 14.4718 4.98473C14.2997 4.98619 14.1351 5.05517 14.0134 5.17682C13.8917 5.29847 13.8227 5.46305 13.8212 5.63512C13.8196 5.80719 13.8857 5.97297 14.0053 6.09676L18.1269 10.2188H7.1L10.757 6.56252L11.0885 6.89401C11.1494 6.95496 11.2218 7.0033 11.3014 7.03628C11.381 7.06926 11.4664 7.08624 11.5526 7.08624C11.6387 7.08624 11.7241 7.06926 11.8037 7.03628C11.8833 7.0033 11.9557 6.95496 12.0166 6.89401C12.0776 6.83307 12.1259 6.76073 12.1589 6.6811C12.1919 6.60148 12.2088 6.51614 12.2088 6.42995C12.2088 6.34377 12.1919 6.25843 12.1589 6.1788C12.1259 6.09918 12.0776 6.02683 12.0166 5.96589L11.6851 5.63439L15.2649 2.05464L17 3.78752C17.0467 4.85658 17.4924 5.86932 18.249 6.62599C19.0057 7.38265 20.0184 7.82829 21.0875 7.87502L22.8215 9.60939L21.7494 10.6838Z" fill="white"/>
<path d="M14.75 13.8438C14.6638 13.8437 14.5784 13.8606 14.4988 13.8936C14.4192 13.9266 14.3468 13.9749 14.2859 14.0359C14.2249 14.0968 14.1766 14.1692 14.1436 14.2488C14.1106 14.3284 14.0937 14.4138 14.0938 14.5V15.625C14.0938 15.799 14.1629 15.966 14.286 16.089C14.409 16.2121 14.576 16.2812 14.75 16.2812C14.924 16.2812 15.091 16.2121 15.214 16.089C15.3371 15.966 15.4062 15.799 15.4062 15.625V14.5C15.4063 14.4138 15.3894 14.3284 15.3564 14.2488C15.3234 14.1692 15.2751 14.0968 15.2141 14.0359C15.1532 13.9749 15.0808 13.9266 15.0012 13.8936C14.9216 13.8606 14.8362 13.8437 14.75 13.8438Z" fill="white"/>
<path d="M14.75 17.4688C14.6638 17.4687 14.5784 17.4856 14.4988 17.5186C14.4192 17.5516 14.3468 17.5999 14.2859 17.6609C14.2249 17.7218 14.1766 17.7942 14.1436 17.8738C14.1106 17.9534 14.0937 18.0388 14.0938 18.125V19.25C14.0938 19.424 14.1629 19.591 14.286 19.714C14.409 19.8371 14.576 19.9062 14.75 19.9062C14.924 19.9062 15.091 19.8371 15.214 19.714C15.3371 19.591 15.4062 19.424 15.4062 19.25V18.125C15.4063 18.0388 15.3894 17.9534 15.3564 17.8738C15.3234 17.7942 15.2751 17.7218 15.2141 17.6609C15.1532 17.5999 15.0808 17.5516 15.0012 17.5186C14.9216 17.4856 14.8362 17.4687 14.75 17.4688Z" fill="white"/>
<path d="M17.375 20.9062C17.4612 20.9063 17.5466 20.8894 17.6262 20.8564C17.7058 20.8234 17.7782 20.7751 17.8391 20.7141C17.9001 20.6532 17.9484 20.5808 17.9814 20.5012C18.0144 20.4216 18.0313 20.3362 18.0312 20.25V13.5C18.0312 13.326 17.9621 13.159 17.839 13.036C17.716 12.9129 17.549 12.8438 17.375 12.8438C17.201 12.8438 17.034 12.9129 16.911 13.036C16.7879 13.159 16.7188 13.326 16.7188 13.5V20.25C16.7187 20.3362 16.7356 20.4216 16.7686 20.5012C16.8016 20.5808 16.8499 20.6532 16.9109 20.7141C16.9718 20.7751 17.0442 20.8234 17.1238 20.8564C17.2034 20.8894 17.2888 20.9063 17.375 20.9062Z" fill="white"/>
</g>
<defs>
<clipPath id="clip0_4958_34328">
<rect width="24" height="24" fill="white" transform="translate(0.5)"/>
</clipPath>
</defs>
</svg>
